<svg width="64" height="64.001" xmlns="http://www.w3.org/2000/svg">

 <g>
  <title>background</title>
  <rect fill="none" id="canvas_background" height="402" width="582" y="-1" x="-1"/>
 </g>
 <g>
  <title>Layer 1</title>
  <rect width="64" id="rect2317-39" height="64.001" fill="none"/>
  <path fill="#007fff" id="path2098" d="m12.651,6.003l4.691,52.751l29.317,0l4.691,-52.751l-38.699,0m0,-2.257l38.7,0a2.254,2.254 0 0 1 2.248,2.452l-4.692,52.756a2.255,2.255 0 0 1 -2.248,2.054l-29.317,0a2.255,2.255 0 0 1 -2.251,-2.054l-4.687,-52.752a2.254,2.254 0 0 1 2.247,-2.456z"/>
  <path stroke-width="1.8" stroke-linecap="round" stroke="#56aaff" id="path2102" fill="none" d="m18.836,13.146997l2.044,24.979"/>
  <path stroke-width="1.8" stroke-linecap="round" stroke="#56aaff" id="path2106" fill="none" d="m21.356,44.372l0.491,6.061"/>
 </g>
</svg>