<svg width="64" height="63.998000000000005" xmlns="http://www.w3.org/2000/svg">

 <g>
  <title>background</title>
  <rect fill="none" id="canvas_background" height="402" width="582" y="-1" x="-1"/>
 </g>
 <g>
  <title>Layer 1</title>
  <rect x="0" y="0" width="64" id="rect2317-3" height="63.998" fill="none"/>
  <path fill="#007fff" id="path2082" d="m12.63,6.081l4.691,52.748l29.317,0l4.691,-52.748l-38.699,0m0,-2.257l38.7,0a2.254,2.254 0 0 1 2.248,2.452l-4.692,52.748a2.255,2.255 0 0 1 -2.248,2.054l-29.317,0a2.255,2.255 0 0 1 -2.251,-2.054l-4.687,-52.744a2.254,2.254 0 0 1 2.247,-2.456z"/>
  <path fill="#56aaff" id="path2086" d="m17.014,28.122s3.673,-2.451 9.741,-1.301s6.114,2.277 11.689,2.912s8.811,-1.612 8.811,-1.612l-2.488,28.515l-25.462,0l-2.291,-28.514z"/>
 </g>
</svg>