<svg width="64" height="63.998" xmlns="http://www.w3.org/2000/svg">

 <g>
  <title>background</title>
  <rect fill="none" id="canvas_background" height="402" width="582" y="-1" x="-1"/>
 </g>
 <g>
  <title>Layer 1</title>
  <path fill="#007fff" id="path2082" d="m12.63,6.081l4.691,52.748l29.317,0l4.691,-52.748l-38.699,0m0,-2.257l38.7,0a2.254,2.254 0 0 1 2.248,2.452l-4.692,52.748a2.255,2.255 0 0 1 -2.248,2.054l-29.317,0a2.255,2.255 0 0 1 -2.251,-2.054l-4.687,-52.744a2.254,2.254 0 0 1 2.247,-2.456z"/>
  <path fill="#56aaff" id="path2086" d="m17.014,28.122s3.673,-2.451 9.741,-1.301s6.114,2.277 11.689,2.912s8.811,-1.612 8.811,-1.612l-2.488,28.515l-25.462,0l-2.291,-28.514z"/>
  <line stroke-linecap="null" stroke-linejoin="null" id="svg_5" y2="15.795675" x2="7.597063" y1="13.258367" x1="7.000049" stroke-opacity="null" stroke-width="null" stroke="null" fill="none"/>
  <line stroke-linecap="null" stroke-linejoin="null" id="svg_6" y2="40.721" x2="23.567181" y1="22.06432" x1="12.223919" stroke-opacity="null" stroke-width="null" stroke="null" fill="none"/>
  <line stroke="#00bf00" transform="rotate(45 42.796749114990256,30.899271011352536) " stroke-linecap="null" stroke-linejoin="null" id="svg_12" y2="56.979296" x2="42.796749" y1="4.819247" x1="42.796749" fill-opacity="null" stroke-opacity="null" stroke-width="5" fill="none"/>
  <line stroke="#00bf00" transform="rotate(-45 17.271553039550778,38.81230926513671) " stroke-linecap="null" stroke-linejoin="null" id="svg_13" y2="52.827521" x2="17.271552" y1="24.7971" x1="17.271552" fill-opacity="null" stroke-opacity="null" stroke-width="5" fill="none"/>
 </g>
</svg>